<?xml version="1.0" encoding="UTF-8" standalone="no"?>
<!-- Created with Inkscape (http://www.inkscape.org/) -->

<svg
   width="256"
   height="256"
   viewBox="0 0 256 256"
   version="1.1"
   id="svg350"
   inkscape:version="1.2.1 (8a69933317, 2022-10-28, custom)"
   sodipodi:docname="all-components.svg"
   xmlns:inkscape="http://www.inkscape.org/namespaces/inkscape"
   xmlns:sodipodi="http://sodipodi.sourceforge.net/DTD/sodipodi-0.dtd"
   xmlns="http://www.w3.org/2000/svg"
   xmlns:svg="http://www.w3.org/2000/svg">
  <sodipodi:namedview
     id="namedview352"
     pagecolor="#ffffff"
     bordercolor="#000000"
     borderopacity="0.25"
     inkscape:showpageshadow="2"
     inkscape:pageopacity="0.0"
     inkscape:pagecheckerboard="0"
     inkscape:deskcolor="#d1d1d1"
     inkscape:document-units="px"
     showgrid="true"
     inkscape:zoom="5.6568543"
     inkscape:cx="87.504464"
     inkscape:cy="108.80606"
     inkscape:window-width="1846"
     inkscape:window-height="1016"
     inkscape:window-x="0"
     inkscape:window-y="0"
     inkscape:window-maximized="1"
     inkscape:current-layer="layer4"
     showguides="true">
    <inkscape:grid
       type="xygrid"
       id="grid172"
       empspacing="4"
       enabled="true"
       visible="true"
       dotted="false" />
    <sodipodi:guide
       position="128,219"
       orientation="1,0"
       id="guide334"
       inkscape:locked="false" />
    <sodipodi:guide
       position="55,128"
       orientation="0,-1"
       id="guide336"
       inkscape:locked="false" />
    <sodipodi:guide
       position="-16.916748,128"
       orientation="0,-1"
       id="guide582"
       inkscape:locked="false" />
    <sodipodi:guide
       position="-16.916748,128"
       orientation="0,-1"
       id="guide1627"
       inkscape:locked="false" />
  </sodipodi:namedview>
  <defs
     id="defs347">
    <inkscape:path-effect
       effect="fillet_chamfer"
       id="path-effect1734"
       is_visible="true"
       lpeversion="1"
       nodesatellites_param="F,0,0,1,0,0,0,1 @ F,0,0,1,0,1.0147501,0,1 @ F,0,0,1,0,0.8829421,0,1 @ F,0,0,1,0,2.4218746,0,1 @ F,0,0,1,0,0.0067955749,0,1 @ F,0,0,1,0,0.0067955749,0,1 @ F,0,0,1,0,0,0,1"
       unit="px"
       method="auto"
       mode="F"
       radius="0"
       chamfer_steps="1"
       flexible="false"
       use_knot_distance="true"
       apply_no_radius="true"
       apply_with_radius="true"
       only_selected="true"
       hide_knots="false" />
  </defs>
  <g
     inkscape:groupmode="layer"
     id="layer3"
     inkscape:label="rotate" />
  <g
     inkscape:groupmode="layer"
     id="layer2"
     inkscape:label="target"
     style="display:none;fill:#c061cb"
     sodipodi:insensitive="true">
    <circle
       style="display:none;fill:#8ff0a4;stroke:none;stroke-width:3.59579"
       id="path1009"
       cx="128"
       cy="128"
       r="124"
       inkscape:label="outer" />
    <circle
       style="display:none;fill:#3584e4;stroke:none;stroke-width:0.779744"
       id="path1063"
       cx="128"
       cy="128"
       r="42"
       inkscape:label="inner" />
    <g
       id="g1007"
       style="display:none"
       inkscape:label="score_guides">
      <rect
         style="display:inline;fill:#c061cb;stroke:none;stroke-width:1.11908"
         id="rect793-3"
         width="256"
         height="1"
         x="-51.497921"
         y="-164.55923"
         transform="rotate(110)"
         inkscape:label="line-6" />
      <rect
         style="display:inline;fill:#c061cb;stroke:none;stroke-width:1.11908"
         id="rect793-3-3"
         width="256"
         height="1"
         x="36.059235"
         y="-77.002075"
         transform="rotate(70)"
         inkscape:label="line-1" />
      <rect
         style="display:inline;fill:#c061cb;stroke:none;stroke-width:1.11908"
         id="rect793-3-5"
         width="256"
         height="1"
         x="-29.409803"
         y="-152.31558"
         transform="rotate(102)"
         inkscape:label="line-5" />
      <rect
         style="display:inline;fill:#c061cb;stroke:none;stroke-width:1.11908"
         id="rect793-3-7"
         width="256"
         height="1"
         x="23.81559"
         y="-99.090195"
         transform="rotate(78)"
         inkscape:label="line-2" />
      <rect
         style="display:inline;fill:#c061cb;stroke:none;stroke-width:1.11908"
         id="rect793"
         width="256"
         height="1"
         x="-9.2406301"
         y="-137.11702"
         transform="rotate(94)"
         inkscape:label="line-4" />
      <rect
         style="display:inline;fill:#c061cb;stroke:none;stroke-width:1.11908"
         id="rect793-3-6"
         width="256"
         height="1"
         x="8.6170273"
         y="-119.25937"
         transform="rotate(86)"
         inkscape:label="line-3" />
    </g>
    <path
       style="display:none;fill:none;stroke:#000000"
       d="m 85.11995,11.650091 c 28.58514,-10.1991442 57.17183,-10.2010984 85.7601,0"
       id="path1119"
       sodipodi:nodetypes="cc"
       inkscape:label="outer_arc" />
    <path
       style="display:none;fill:none;stroke:#000000"
       d="m 113.1663,88.706725 c 9.55403,-3.385775 19.39954,-3.826553 29.6674,0"
       id="path1391"
       sodipodi:nodetypes="cc"
       inkscape:label="inner_arc" />
    <g
       id="g1919"
       inkscape:label="score_zones"
       transform="rotate(-90,128,128)">
      <path
         style="display:inline;fill:#62a0ea;stroke:none;stroke-width:0.25"
         d="m 125.72244,85.446882 c -0.18814,-0.490677 -5.63921,-80.3774464 -5.4945,-80.5232709 0.26109,-0.2631112 15.28303,-0.2631112 15.54412,0 C 135.88198,5.034375 134.70959,23.18125 133.16676,45.25 l -2.80515,40.125 -2.3058,0.07188 c -1.2682,0.03954 -2.31821,0.03954 -2.33337,0 z"
         id="path1681"
         inkscape:label="4"
         transform="rotate(90,128,128)" />
      <path
         style="display:inline;fill:#ffa348;stroke:none;stroke-width:0.25"
         d="m 133.8459,85.79096 -2.27909,-0.338798 0.10178,-1.038582 c 0.056,-0.571218 1.27398,-17.96983 2.70666,-38.66358 1.43268,-20.69375 2.67598,-38.3414813 2.76289,-39.2171807 l 0.15801,-1.5921807 1.53943,0.1627295 c 5.52081,0.583595 13.71779,1.8666735 14.05045,2.1993249 0.11148,0.111479 -16.25254,77.415757 -16.58003,78.324687 -0.17572,0.487727 -0.24747,0.492497 -2.4601,0.16358 z"
         id="path1752"
         inkscape:label="3_right"
         transform="rotate(90,128,128)" />
      <path
         style="display:inline;fill:#ffa348;stroke:none;stroke-width:0.25"
         d="M 119.52266,85.06109 C 118.44783,80.451045 103.02837,7.3882977 103.11251,7.3041525 c 0.46413,-0.4641238 15.21286,-2.5621154 15.56139,-2.21359 0.12113,0.1211367 5.78927,80.2229275 5.68655,80.3620275 -0.0315,0.04268 -0.82863,0.182585 -1.77137,0.31091 -0.94275,0.128322 -1.95614,0.289647 -2.25198,0.358497 -0.46725,0.108738 -0.57423,-0.03062 -0.81444,-1.060907 z"
         id="path1754"
         inkscape:label="3_left"
         transform="rotate(90,128,128)" />
      <path
         style="display:inline;fill:#f8e45c;stroke:none;stroke-width:0.25"
         d="M 113.7734,87.033785 C 113.19633,85.590872 86.5,12.136261 86.5,11.991377 c 0,-0.390419 14.90008,-4.6746326 15.20331,-4.3714021 0.15427,0.1542703 16.80931,78.7007321 16.70902,78.8010251 -0.0514,0.05141 -1.05692,0.35855 -2.23447,0.682525 l -2.14099,0.589047 z"
         id="path1825"
         inkscape:label="2_left"
         transform="rotate(90,128,128)" />
      <path
         style="display:inline;fill:#f8e45c;stroke:none;stroke-width:0.25"
         d="m 139.75,87.049285 c -1.16875,-0.33387 -2.154,-0.632413 -2.18943,-0.663428 -0.0834,-0.07301 16.61448,-78.6442431 16.74012,-78.76988 0.13686,-0.1368578 6.32243,1.4483353 9.69931,2.485667 5.26441,1.617157 5.53833,1.725052 5.42917,2.138497 -0.18263,0.691764 -27.22074,74.877539 -27.38972,75.150519 -0.11073,0.178875 -0.85861,0.06736 -2.28945,-0.341375 z"
         id="path1827"
         inkscape:label="2_right"
         transform="rotate(90,128,128)" />
      <circle
         style="display:none;fill:#000000;stroke:none;stroke-width:3.36598"
         id="path1882"
         cx="128"
         cy="128"
         r="128"
         inkscape:label="rotator_circle"
         transform="rotate(90,128,128)" />
    </g>
  </g>
  <g
     inkscape:groupmode="layer"
     id="layer4"
     inkscape:label="border"
     style="fill:#5e5c64">
    <path
       id="path1571"
       style="fill:none;stroke:#77767b"
       d="M 128,0.49804688 C 57.921171,0.49804517 1.0472616,57.035026 0.5020006,126.98526 c -0.004368,0.56041 -0.003519,1.46907 0.001999,2.02947 0.006902,0.701 0.0195857,1.40193 0.0380491,2.10272 0.012843,0.48747 0.0301068,1.11341 0.0360763,1.39817 H 255.41508 c 0.004,0 0.007,-0.003 0.007,-0.007 0.006,-0.16734 0.0117,-0.33468 0.0171,-0.50204 1.2e-4,-0.004 3.2e-4,-0.01 4.3e-4,-0.0136 0.0416,-1.33066 0.0624,-2.6619 0.0623,-3.99321 C 255.50195,57.582616 198.41738,0.49804688 128,0.49804688 Z"
       inkscape:path-effect="#path-effect1734"
       inkscape:original-d="M 128,0.49804688 A 127.50195,127.50195 0 0 0 0.49804688,128 a 127.50195,127.50195 0 0 0 0.0703125,4 127.50195,127.50195 0 0 0 0.009766,0.51562 H 255.42188 A 127.50195,127.50195 0 0 0 255.43945,132 127.50195,127.50195 0 0 0 255.50195,128 127.50195,127.50195 0 0 0 128,0.49804688 Z" />
  </g>
  <g
     inkscape:groupmode="layer"
     id="layer5"
     inkscape:label="cover" />
  <g
     inkscape:label="guess"
     inkscape:groupmode="layer"
     id="layer1"
     style="display:inline"
     sodipodi:insensitive="true">
    <rect
       style="display:inline;fill:#e01b24;stroke:none;stroke-width:1.68054"
       id="rect662"
       width="4"
       height="120"
       x="126"
       y="8.0000029"
       inkscape:label="hand" />
    <g
       id="g687"
       inkscape:label="dial_base"
       style="display:inline">
      <circle
         style="fill:#e01b24;stroke:none;stroke-width:1.9091"
         id="path554"
         cx="128"
         cy="128"
         r="21"
         inkscape:label="bottom" />
      <circle
         style="fill:#a51d2d;stroke:none;stroke-width:2"
         id="path608"
         cx="128"
         cy="128"
         r="18"
         inkscape:label="top" />
    </g>
  </g>
</svg>
