<?xml version="1.0" encoding="UTF-8" standalone="no"?>
<!-- Created with Inkscape (http://www.inkscape.org/) -->

<svg
   width="256"
   height="256"
   viewBox="0 0 256 256"
   version="1.1"
   id="svg350"
   inkscape:version="1.2.2 (b0a8486541, 2022-12-01, custom)"
   sodipodi:docname="all-components.svg"
   inkscape:export-filename="../5b9de733/border.svg"
   inkscape:export-xdpi="96"
   inkscape:export-ydpi="96"
   xmlns:inkscape="http://www.inkscape.org/namespaces/inkscape"
   xmlns:sodipodi="http://sodipodi.sourceforge.net/DTD/sodipodi-0.dtd"
   xmlns="http://www.w3.org/2000/svg"
   xmlns:svg="http://www.w3.org/2000/svg">
  <sodipodi:namedview
     id="namedview352"
     pagecolor="#ffffff"
     bordercolor="#000000"
     borderopacity="0.25"
     inkscape:showpageshadow="2"
     inkscape:pageopacity="0.0"
     inkscape:pagecheckerboard="0"
     inkscape:deskcolor="#d1d1d1"
     inkscape:document-units="px"
     showgrid="false"
     inkscape:zoom="2.8284271"
     inkscape:cx="55.861436"
     inkscape:cy="99.52528"
     inkscape:window-width="1846"
     inkscape:window-height="1016"
     inkscape:window-x="0"
     inkscape:window-y="0"
     inkscape:window-maximized="1"
     inkscape:current-layer="layer2"
     showguides="false">
    <inkscape:grid
       type="xygrid"
       id="grid172"
       empspacing="4"
       enabled="true"
       visible="true"
       dotted="false" />
    <sodipodi:guide
       position="128,219"
       orientation="1,0"
       id="guide334"
       inkscape:locked="false" />
    <sodipodi:guide
       position="55,128"
       orientation="0,-1"
       id="guide336"
       inkscape:locked="false" />
    <sodipodi:guide
       position="-16.916748,128"
       orientation="0,-1"
       id="guide582"
       inkscape:locked="false" />
    <sodipodi:guide
       position="-16.916748,128"
       orientation="0,-1"
       id="guide1627"
       inkscape:locked="false" />
    <sodipodi:guide
       position="-22,124"
       orientation="0,-1"
       id="guide4982"
       inkscape:locked="false" />
  </sodipodi:namedview>
  <defs
     id="defs347" />
  <g
     inkscape:groupmode="layer"
     id="layer4"
     inkscape:label="border"
     style="display:inline;fill:#5e5c64">
    <path
       id="path5420"
       style="fill:none;stroke:#77767b;stroke-width:1;stroke-dasharray:none"
       d="M 128,0.50195312 A 127.49709,127.49709 0 0 0 0.50195312,128 9.5131488,9.5131488 0 0 0 10.501953,137 H 90.5 a 9.5131488,9.5131488 0 0 0 10,-9 27.5,27.499952 0 0 1 0.0703,-1.96289 27.5,27.499952 0 0 1 0.20899,-1.95117 27.5,27.499952 0 0 1 0.34765,-1.93164 27.5,27.499952 0 0 1 0.48633,-1.90235 27.5,27.499952 0 0 1 0.61914,-1.86328 27.5,27.499952 0 0 1 0.75196,-1.8125 27.5,27.499952 0 0 1 0.8789,-1.75586 27.5,27.499952 0 0 1 1.00195,-1.6875 27.5,27.499952 0 0 1 1.11915,-1.61133 27.5,27.499952 0 0 1 1.23242,-1.52929 27.5,27.499952 0 0 1 1.33789,-1.4375 27.5,27.499952 0 0 1 1.4375,-1.33789 27.5,27.499952 0 0 1 1.52929,-1.23242 27.5,27.499952 0 0 1 1.61133,-1.11915 27.5,27.499952 0 0 1 1.6875,-1.00195 27.5,27.499952 0 0 1 1.75586,-0.8789 27.5,27.499952 0 0 1 1.8125,-0.75196 27.5,27.499952 0 0 1 1.86328,-0.61914 27.5,27.499952 0 0 1 1.90235,-0.48633 27.5,27.499952 0 0 1 1.93164,-0.34765 27.5,27.499952 0 0 1 1.95117,-0.20899 A 27.5,27.499952 0 0 1 128,100.5 a 27.5,27.499952 0 0 1 1.34961,0.0332 27.5,27.499952 0 0 1 1.3457,0.0996 27.5,27.499952 0 0 1 1.33985,0.16407 27.5,27.499952 0 0 1 1.33007,0.23242 27.5,27.499952 0 0 1 1.31641,0.29492 27.5,27.499952 0 0 1 1.30078,0.35937 27.5,27.499952 0 0 1 1.28125,0.42383 27.5,27.499952 0 0 1 1.25977,0.48633 27.5,27.499952 0 0 1 1.23437,0.54687 27.5,27.499952 0 0 1 1.20508,0.60743 27.5,27.499952 0 0 1 1.17578,0.66406 27.5,27.499952 0 0 1 1.13867,0.72266 27.5,27.499952 0 0 1 1.10352,0.77734 27.5,27.499952 0 0 1 1.06445,0.83008 27.5,27.499952 0 0 1 1.02344,0.88086 27.5,27.499952 0 0 1 0.97656,0.93164 27.5,27.499952 0 0 1 0.93164,0.97656 27.5,27.499952 0 0 1 0.88086,1.02344 27.5,27.499952 0 0 1 0.83008,1.06445 27.5,27.499952 0 0 1 0.77734,1.10352 27.5,27.499952 0 0 1 0.72266,1.13867 27.5,27.499952 0 0 1 0.66406,1.17578 27.5,27.499952 0 0 1 0.60743,1.20508 27.5,27.499952 0 0 1 0.54687,1.23437 27.5,27.499952 0 0 1 0.48633,1.25977 27.5,27.499952 0 0 1 0.42383,1.28125 27.5,27.499952 0 0 1 0.35937,1.30078 27.5,27.499952 0 0 1 0.29492,1.31641 27.5,27.499952 0 0 1 0.23242,1.33007 27.5,27.499952 0 0 1 0.16407,1.33985 27.5,27.499952 0 0 1 0.0996,1.3457 A 27.5,27.499952 0 0 1 155.5,128 a 9.5131488,9.5131488 0 0 0 10,9 h 79.99805 a 9.5131488,9.5131488 0 0 0 10,-9 A 127.49709,127.49709 0 0 0 128,0.50195312 Z M 100.5,128 a 27.5,27.499952 0 0 1 0.2793,-3.91406 27.5,27.499952 0 0 0 -0.20899,1.95117 A 27.5,27.499952 0 0 0 100.5,128 Z m 0.2793,-3.91406 a 27.5,27.499952 0 0 1 0.83398,-3.83399 27.5,27.499952 0 0 0 -0.48633,1.90235 27.5,27.499952 0 0 0 -0.34765,1.93164 z m 0.83398,-3.83399 a 27.5,27.499952 0 0 1 1.3711,-3.67578 27.5,27.499952 0 0 0 -0.75196,1.8125 27.5,27.499952 0 0 0 -0.61914,1.86328 z m 1.3711,-3.67578 a 27.5,27.499952 0 0 1 1.88085,-3.44336 27.5,27.499952 0 0 0 -1.00195,1.6875 27.5,27.499952 0 0 0 -0.8789,1.75586 z m 1.88085,-3.44336 a 27.5,27.499952 0 0 1 2.35157,-3.14062 27.5,27.499952 0 0 0 -1.23242,1.52929 27.5,27.499952 0 0 0 -1.11915,1.61133 z m 2.35157,-3.14062 a 27.5,27.499952 0 0 1 2.77539,-2.77539 27.5,27.499952 0 0 0 -1.4375,1.33789 27.5,27.499952 0 0 0 -1.33789,1.4375 z m 2.77539,-2.77539 a 27.5,27.499952 0 0 1 3.14062,-2.35157 27.5,27.499952 0 0 0 -1.61133,1.11915 27.5,27.499952 0 0 0 -1.52929,1.23242 z m 3.14062,-2.35157 a 27.5,27.499952 0 0 1 3.44336,-1.88085 27.5,27.499952 0 0 0 -1.75586,0.8789 27.5,27.499952 0 0 0 -1.6875,1.00195 z m 3.44336,-1.88085 a 27.5,27.499952 0 0 1 3.67578,-1.3711 27.5,27.499952 0 0 0 -1.86328,0.61914 27.5,27.499952 0 0 0 -1.8125,0.75196 z m 3.67578,-1.3711 a 27.5,27.499952 0 0 1 3.83399,-0.83398 27.5,27.499952 0 0 0 -1.93164,0.34765 27.5,27.499952 0 0 0 -1.90235,0.48633 z m 3.83399,-0.83398 A 27.5,27.499952 0 0 1 128,100.5 a 27.5,27.499952 0 0 0 -1.96289,0.0703 27.5,27.499952 0 0 0 -1.95117,0.20899 z"
       inkscape:label="border" />
  </g>
</svg>
